<svg width="40" height="40" viewBox="0 0 40 40" fill="none" xmlns="http://www.w3.org/2000/svg">
<g clip-path="url(#clip0_1_12)">
<path fill-rule="evenodd" clip-rule="evenodd" d="M11.7577 0.245696C8.48368 0.379023 5.66118 1.18698 3.38583 3.44554C1.09518 5.73743 0.308245 8.5693 0.161571 11.7931C0.0697412 13.8037 -0.460833 28.9923 1.0888 32.9788C2.13464 35.6653 4.197 37.7319 6.90981 38.7852C8.17248 39.2785 9.62136 39.6091 11.7398 39.7078C29.4605 40.5104 36.0289 40.0745 38.8004 32.9801C39.2914 31.7162 39.6294 30.2736 39.7238 28.163C40.5337 10.3959 39.5924 6.54673 36.5034 3.46154C34.052 1.01366 31.1734 -0.650261 11.7577 0.245696ZM11.9235 36.132C9.9823 36.044 8.93008 35.7213 8.2286 35.4493C6.46087 34.7627 5.13315 33.4401 4.45336 31.6842C3.27232 28.6577 3.66515 14.2797 3.76846 11.9545C3.87049 9.67458 4.33602 7.59468 5.9405 5.98142C7.90974 4.00018 10.4797 3.0269 27.9861 3.81619C30.2691 3.91885 32.3583 4.38017 33.9704 5.98276C35.96 7.96933 36.9472 10.5585 36.1424 27.9817C36.0531 29.9176 35.7305 30.9682 35.4575 31.6669C33.6566 36.2826 29.5141 36.9239 11.9005 36.1173H11.9209L11.9235 36.132ZM28.1787 9.37859C28.1787 10.6919 29.2462 11.7598 30.5676 11.7598C31.8889 11.7598 32.9577 10.6932 32.9577 9.37859C32.9577 8.06399 31.8863 6.99737 30.5676 6.99737C29.2488 6.99737 28.1787 8.06399 28.1787 9.37859ZM9.72339 19.9728C9.72339 25.6018 14.2996 30.1656 19.9446 30.1656C25.5896 30.1656 30.1658 25.6058 30.1658 19.9728C30.1658 14.3397 25.5896 9.78124 19.9446 9.78124C14.2996 9.78124 9.72339 14.3597 9.72339 19.9728ZM13.3099 19.9728C13.3099 16.3196 16.2778 13.3571 19.942 13.3571C23.6063 13.3571 26.5742 16.3209 26.5742 19.9728C26.5742 23.6246 23.6063 26.5911 19.942 26.5911C16.2778 26.5911 13.3099 23.6272 13.3099 19.9728Z" fill="black"/>
</g>
<defs>
<clipPath id="clip0_1_12">
<rect width="40" height="40" fill="white"/>
</clipPath>
</defs>
</svg>
