<svg width="15" height="15" viewBox="0 0 15 15" fill="none" xmlns="http://www.w3.org/2000/svg">
<path d="M9.09946 3.48402C8.79616 3.18072 8.79616 2.70317 9.09946 2.39998C9.39951 2.1087 9.88345 2.1087 10.1835 2.39998L14.7267 6.94253C14.873 7.08907 14.955 7.28806 14.9542 7.49514C14.9549 7.70237 14.873 7.90157 14.7267 8.04843L10.1835 12.591C9.8802 12.8943 9.40276 12.8943 9.09946 12.591C8.79616 12.2877 8.79616 11.8102 9.09946 11.5069L12.3523 8.26492H0.804671C0.381798 8.26561 0.0457344 7.91865 0.0457344 7.49577C0.0457344 7.0729 0.381905 6.73689 0.804671 6.73689H12.3516L9.09946 3.48402Z" fill="black"/>
</svg>
