<svg width="100" height="100" viewBox="0 0 100 100" fill="none" xmlns="http://www.w3.org/2000/svg">
<path d="M60.7287 23.694C58.6943 21.6695 58.6943 18.4819 60.7287 16.4582C62.7413 14.5139 65.9874 14.5139 68 16.4582L98.474 46.779C99.4553 47.7571 100.005 49.0854 100 50.4676C100.005 51.8508 99.4553 53.1804 98.474 54.1607L68 84.4816C65.9656 86.5061 62.7631 86.5061 60.7287 84.4816C58.6943 82.4572 58.6943 79.2699 60.7287 77.2454L82.5475 55.6057H5.09064C2.25418 55.6103 0 53.2944 0 50.4718C0 47.6492 2.2549 45.4064 5.09064 45.4064H82.5428L60.7287 23.694Z" fill="black"/>
</svg>
