<svg width="40" height="40" viewBox="0 0 40 40" fill="none" xmlns="http://www.w3.org/2000/svg">
<g clip-path="url(#clip0_1_8)">
<path d="M29.944 0H10.024C4.50306 0 0 4.50667 0 10.032V30C0 35.4933 4.50306 40 10.024 40H29.976C35.4956 40 40 35.4933 40 29.968V10.032C39.968 4.50667 35.465 0 29.944 0ZM13.3227 32.3813H7.61258V15.8747H13.3227V32.3813ZM10.4357 13.3333C8.81828 13.3333 7.50466 12.032 7.50466 10.4C7.50466 8.768 8.80496 7.46667 10.4357 7.46667C12.0663 7.46667 13.3666 8.768 13.3666 10.4C13.3347 12.0187 12.0344 13.3333 10.4357 13.3333ZM32.3741 32.3813H27.5846V24.3813C27.5846 22.4453 27.3315 19.968 24.6976 19.968C22.0011 19.968 21.5574 22.0613 21.5574 24.2533V32.38H16.8132V15.8733H21.2537V18.096H21.3802C22.0783 16.8267 23.6957 15.8293 26.2337 15.8293C31.4668 15.8293 32.3888 18.8453 32.3888 23.3227V32.3707L32.3741 32.3813Z" fill="black"/>
</g>
<defs>
<clipPath id="clip0_1_8">
<rect width="40" height="40" fill="white"/>
</clipPath>
</defs>
</svg>
