<svg width="40" height="40" viewBox="0 0 40 40" fill="none" xmlns="http://www.w3.org/2000/svg">
<g clip-path="url(#clip0_1_10)">
<path fill-rule="evenodd" clip-rule="evenodd" d="M32.7743 11.4921H24.641V13.4286H32.7743V11.4921ZM14.881 30.4698C14.881 30.4698 20.8454 30.2762 20.8454 24.2343C20.8454 24.2343 21.1165 19.3156 17.321 19.3543C17.321 19.3543 20.187 19.1606 20.187 15.5975C20.187 12.0343 17.8244 10.3302 14.8422 10.3302H9.34256H9.18764H5.27588V30.4698H9.22636H9.38128H14.881ZM25.648 23.8857H35.4467C35.4467 23.8857 36.4924 15.2876 28.8625 15.3264C21.62 15.3264 21.62 22.9949 21.62 22.9949C21.62 22.9949 21.1165 30.6248 28.8625 30.6248C28.8625 30.6248 35.3305 30.8572 35.3305 25.4349H31.9997C31.9997 25.4349 32.1159 27.4489 28.9787 27.4489C28.9787 27.4489 25.648 27.7587 25.648 23.8857ZM14.881 13.8159H14.1838H9.5362V18.0762H14.5324C15.4232 18.0762 16.1978 17.8438 16.1978 15.7911C16.1978 13.7384 14.881 13.8159 14.881 13.8159ZM14.881 21.1746H9.5362V26.5968H14.2226H14.5711C15.3457 26.5968 16.8175 26.287 16.8175 23.9632C16.8562 21.2133 14.881 21.1746 14.881 21.1746ZM28.94 18.1149C26.0352 18.1149 25.6092 21.1746 25.6092 21.1746H31.806C31.806 21.1746 31.8448 18.1149 28.94 18.1149ZM10 0C4.47716 0 0 4.47716 0 10V30C0 35.5228 4.47716 40 10 40H30C35.5228 40 40 35.5228 40 30V10C40 4.47716 35.5228 0 30 0L10 0Z" fill="black"/>
</g>
<defs>
<clipPath id="clip0_1_10">
<rect width="40" height="40" fill="white"/>
</clipPath>
</defs>
</svg>
