<svg width="100" height="100" viewBox="0 0 100 100" fill="none" xmlns="http://www.w3.org/2000/svg">
<path d="M39.2713 23.694C41.3057 21.6695 41.3057 18.4819 39.2713 16.4582C37.2587 14.5139 34.0126 14.5139 32 16.4582L1.52602 46.779C0.544696 47.7571 -0.00532626 49.0854 3.98206e-05 50.4676C-0.0046555 51.8508 0.544696 53.1804 1.52602 54.1607L32 84.4816C34.0344 86.5061 37.2369 86.5061 39.2713 84.4816C41.3057 82.4572 41.3057 79.2699 39.2713 77.2454L17.4525 55.6057H94.9094C97.7458 55.6103 100 53.2944 100 50.4718C100 47.6492 97.7451 45.4064 94.9094 45.4064H17.4572L39.2713 23.694Z" fill="black"/>
</svg>
