<svg width="15" height="15" viewBox="0 0 15 15" fill="none" xmlns="http://www.w3.org/2000/svg">
<path d="M3.48402 5.90053C3.18072 6.20383 2.70317 6.20383 2.39998 5.90053C2.1087 5.60048 2.1087 5.11654 2.39998 4.81649L6.94253 0.273242C7.08907 0.126965 7.28806 0.044997 7.49514 0.0457416C7.70237 0.0451033 7.90157 0.127019 8.04843 0.273242L12.591 4.81649C12.8943 5.11979 12.8943 5.59723 12.591 5.90053C12.2877 6.20383 11.8102 6.20383 11.5069 5.90053L8.26492 2.64766V14.1953C8.26561 14.6182 7.91865 14.9543 7.49577 14.9543C7.0729 14.9543 6.73689 14.6181 6.73689 14.1953L6.73689 2.6484L3.48402 5.90053Z" fill="black"/>
</svg>
